<svg
  width="160"
  height="199"
  viewBox="0 0 160 199"
  fill="none"
  xmlns="http://www.w3.org/2000/svg"
>
<path
    d="M160 80.2347C160 124.428 124.167 160.235 80.0001 160.235C35.8261 160.235 0 124.421 0 80.2347C0 36.048 35.8327 0.234619 80.0001 0.234619C124.174 0.234619 160 36.048 160 80.2347Z"
    fill="white"
  />
<path
    d="M78.6197 0.0225256C78.5728 0.0694541 77.7281 0.147668 76.7426 0.194597C75.7571 0.257168 74.271 0.335382 73.4576 0.366667C72.6441 0.413596 71.5491 0.523096 71.0329 0.60131C70.5167 0.679524 69.2497 0.851595 68.2172 0.99238C67.1848 1.13317 66.1367 1.30524 65.8708 1.38345C65.6205 1.46166 64.9792 1.57116 64.463 1.63374C63.9467 1.68066 63.4618 1.79016 63.368 1.85273C63.2897 1.91531 62.9612 2.00916 62.664 2.05609C62.1635 2.11866 61.6003 2.2438 59.2695 2.82259C58.8315 2.93209 58.4092 3.07287 58.3466 3.15109C58.284 3.21366 58.112 3.26059 57.9555 3.26059C57.6583 3.26059 56.141 3.69859 55.7655 3.8863C55.6248 3.96451 55.2493 4.07401 54.9365 4.12094C54.6236 4.18351 54.3264 4.29301 54.2795 4.37123C54.2326 4.44944 54.0918 4.51201 53.951 4.51201C53.8258 4.51201 53.4973 4.60587 53.2314 4.71537C52.9498 4.84051 52.4493 5.02823 52.1051 5.13773C51.3699 5.35672 50.5565 5.68522 49.9464 6.01372C49.6961 6.13886 49.4459 6.23272 49.3676 6.23272C49.2112 6.23272 47.7251 6.88972 44.8312 8.25064C44.534 8.39143 44.2524 8.53221 44.2055 8.57914C44.1586 8.62607 43.5954 8.92328 42.9541 9.25178C40.6546 10.3937 37.0098 12.5837 37.0098 12.8183C37.0098 12.9748 122.263 13.0217 122.842 12.8653C123.155 12.7871 123.108 12.7088 122.388 12.2396C121.966 11.9423 121.544 11.7077 121.465 11.7077C121.387 11.7077 121.325 11.6451 121.325 11.5826C121.325 11.52 121.137 11.3792 120.902 11.2853C120.417 11.082 119.26 10.425 119.135 10.2842C119.088 10.2373 118.352 9.84621 117.492 9.42385C116.632 9.0015 115.897 8.62607 115.85 8.57914C115.756 8.48529 114.755 8.00036 113.66 7.51543C113.269 7.34336 112.471 6.98358 111.892 6.71765C111.298 6.45172 110.719 6.23272 110.594 6.23272C110.468 6.23272 110.375 6.17015 110.375 6.09194C110.375 6.01372 110.14 5.88858 109.874 5.84165C109.592 5.77908 109.295 5.66958 109.201 5.60701C109.123 5.54444 108.372 5.26287 107.559 4.9813C106.745 4.71537 105.932 4.4338 105.76 4.35558C105.385 4.19916 102.96 3.41702 102.319 3.24494C102.068 3.18237 101.427 3.0103 100.911 2.86952C98.9553 2.33766 96.8749 1.86838 95.4357 1.60245C93.7306 1.28959 92.8546 1.14881 91.2122 0.929809C90.4457 0.820309 89.4914 0.679524 89.1004 0.60131C88.7093 0.507453 87.3797 0.413596 86.1282 0.351025C84.8768 0.304096 83.6567 0.241525 83.3907 0.210239C82.5148 0.0850969 78.6979 -0.0556884 78.6197 0.0225256Z"
    fill="#0000CD"
  />
<path
    d="M23.0877 23.9717C22.4464 24.5817 20.5379 26.631 20.1312 27.1159C19.9279 27.3818 19.5368 27.8354 19.2709 28.1327C19.0049 28.4455 18.5357 28.993 18.2385 29.3841C17.9412 29.7595 17.6127 30.1349 17.5345 30.2288C17.2842 30.4947 16.6272 31.3238 16.3144 31.7462C15.0473 33.4981 14.4842 34.3272 14.4842 34.4211C14.4842 34.5775 46.3486 34.5775 46.4268 34.4211C46.4894 34.2803 48.5699 32.9976 49.4459 32.5752C49.79 32.4188 50.1029 32.2311 50.1498 32.1841C50.1967 32.1216 50.6034 31.9495 51.0571 31.7931C51.4951 31.6367 51.8705 31.4489 51.8705 31.3864C51.8705 31.3082 51.98 31.2612 52.1208 31.2612C52.2616 31.2612 52.5901 31.1674 52.856 31.0422C53.3253 30.8389 54.0448 30.6042 55.3119 30.1975C55.6091 30.1037 56.141 29.9785 56.4851 29.9316C56.8293 29.869 57.2516 29.7752 57.4237 29.6969C58.55 29.212 63.7434 28.8522 66.5591 29.0712C68.7804 29.2433 71.0799 29.5562 71.3458 29.7126C71.4396 29.7752 71.8464 29.869 72.2687 29.9316C72.6911 29.9785 73.1447 30.088 73.2855 30.1662C73.4263 30.2288 73.9581 30.4165 74.4743 30.5729C74.9906 30.7137 75.4755 30.9014 75.5693 30.9797C75.6476 31.0422 75.804 31.1048 75.9291 31.1048C76.1794 31.1048 77.1493 31.5272 78.8543 32.3875C79.5426 32.7473 80.2622 33.1071 80.4499 33.2009C80.6533 33.2948 80.8097 33.4199 80.8097 33.4825C80.8097 33.5607 80.9035 33.6076 81.0287 33.6076C81.1538 33.6076 81.3572 33.7015 81.4667 33.7954C81.5762 33.9049 81.889 34.1239 82.1706 34.2646C82.6243 34.5306 84.4545 34.5462 114.191 34.5462H145.743L145.07 33.5607C144.695 33.0289 144.351 32.5596 144.288 32.5439C144.21 32.5127 144.163 32.3875 144.163 32.278C144.163 32.1529 144.069 31.9964 143.96 31.9339C143.835 31.8713 143.616 31.6054 143.443 31.3394C143.287 31.0892 142.974 30.6981 142.755 30.4634C142.536 30.2288 142.192 29.8221 141.973 29.5562C141.519 28.9617 141.144 28.5081 140.675 27.9762C140.487 27.7572 140.127 27.3349 139.893 27.0377C139.658 26.7405 138.813 25.8332 138.031 25.0354L136.608 23.5962H23.4788L23.0877 23.9717Z"
    fill="#0000CD"
  />
<path
    d="M8.93098 43.5096C8.75891 43.8693 8.58684 44.1978 8.53991 44.2448C8.4617 44.323 8.11755 45.0269 7.71084 45.9655C7.57006 46.2627 7.22591 47.0448 6.9287 47.6862C6.63149 48.3275 6.33427 49.0315 6.2717 49.2505C6.20913 49.4695 6.08399 49.7354 5.99013 49.8449C5.64599 50.2673 6.06835 50.2203 6.64713 49.751C6.99127 49.4695 7.35106 49.2505 7.42927 49.2505C7.52313 49.2505 7.60134 49.1723 7.60134 49.094C7.60134 49.0002 7.6952 48.9376 7.82034 48.9376C7.94548 48.9376 8.14884 48.8438 8.25834 48.7343C8.63377 48.3901 12.1534 46.7476 12.5288 46.7476C12.6696 46.7476 12.8886 46.685 13.045 46.5912C13.3423 46.4348 14.2965 46.2001 16.1267 45.8873C17.7379 45.59 21.0854 45.59 22.7749 45.8873C23.9481 46.0906 24.4799 46.2158 26.4509 46.732C26.7169 46.7945 27.061 46.9353 27.2331 47.0292C27.4051 47.1074 27.8275 47.3108 28.1716 47.4515C28.8756 47.7331 28.8912 47.7331 30.2052 48.4683C31.2689 49.0628 32.8488 50.1265 33.3025 50.5645C33.5997 50.846 33.6153 50.846 33.8343 50.5801C33.9438 50.408 34.0377 50.189 34.0377 50.0639C34.0377 49.9388 34.1315 49.6572 34.2567 49.4382C34.4913 48.9689 34.6321 48.656 35.1483 47.3733C35.3517 46.904 35.5394 46.4817 35.5863 46.4348C35.6489 46.3878 35.821 46.075 35.993 45.7308C36.1651 45.3867 36.3998 45.0113 36.4936 44.9018C36.6031 44.7923 36.697 44.5889 36.697 44.4638C36.697 44.3386 36.7752 44.2448 36.8534 44.2448C36.9473 44.2448 37.0098 44.1666 37.0098 44.0727C37.0098 43.9788 37.1975 43.666 37.4165 43.3688L37.8232 42.8369H9.24384L8.93098 43.5096Z"
    fill="#0000CD"
  />
<path
    d="M91.1652 43.181C92.1194 44.6515 92.6982 45.637 92.6982 45.7778C92.6982 45.8716 92.7451 45.9655 92.8234 45.9968C92.8859 46.0124 93.0424 46.294 93.1831 46.5912C93.3239 46.8884 93.6211 47.4985 93.8401 47.9365C94.0591 48.3901 94.2781 48.9689 94.3407 49.2348C94.4033 49.5007 94.4971 49.7197 94.5754 49.7197C94.6536 49.7197 94.7318 49.9075 94.7631 50.1421C94.8256 50.627 95.0759 50.7678 95.3731 50.455C95.8737 49.9857 98.0011 48.484 98.7207 48.1085C100.097 47.4046 101.63 46.7476 101.912 46.7476C102.053 46.7476 102.24 46.685 102.334 46.6068C103.101 45.8716 110.953 45.8716 112.283 46.6068C112.439 46.685 112.658 46.7476 112.799 46.7476C113.269 46.7476 116.381 48.2493 116.913 48.7342C117.023 48.8437 117.21 48.9376 117.336 48.9376C117.445 48.9376 117.57 48.9845 117.602 49.0627C117.633 49.1253 117.961 49.4225 118.352 49.7197C118.743 50.017 119.228 50.4237 119.447 50.6114L119.838 50.9712H154.456L154.315 50.455C154.237 50.1734 154.002 49.579 153.783 49.1253C153.564 48.6873 153.392 48.2806 153.392 48.2337C153.392 48.1242 152.235 45.637 151.625 44.4794C151.374 43.9632 151.077 43.3844 150.983 43.1967L150.811 42.8369H90.9462L91.1652 43.181Z"
    fill="#0000CD"
  />
<path
    d="M123.624 56.2428C123.577 56.321 123.718 56.7121 123.921 57.1501C124.125 57.5724 124.281 58.0886 124.297 58.2764C124.297 58.4641 124.359 58.6518 124.437 58.6987C124.5 58.7456 124.656 59.3088 124.766 59.9658C124.875 60.6071 125.016 61.139 125.063 61.139C125.11 61.139 125.376 60.9356 125.658 60.701C126.518 59.9658 126.862 59.7311 127.05 59.7311C127.159 59.7311 127.269 59.6842 127.3 59.606C127.363 59.4496 129.24 58.5579 129.928 58.3389C130.225 58.2607 130.726 58.1043 131.023 57.9948C131.32 57.9009 132.509 57.7758 133.651 57.7445C135.278 57.6663 135.966 57.7132 136.858 57.9166C138.313 58.2764 139.486 58.6987 140.55 59.2775C141.754 59.9501 142.161 60.2474 143.6 61.4831L144.085 61.9211H150.921C154.675 61.9211 157.788 61.8586 157.835 61.7803C157.882 61.7178 157.851 61.4519 157.772 61.2016C157.694 60.9513 157.522 60.3256 157.381 59.8094C157.24 59.2931 157.053 58.5892 156.959 58.2451C156.865 57.9009 156.693 57.2909 156.552 56.8685L156.302 56.1333H140.002C131.023 56.1333 123.655 56.1802 123.624 56.2428Z"
    fill="#0000CD"
  />
<path
    d="M146.071 64.8463C146.697 66.129 146.838 66.5045 147.041 67.3961L147.213 68.1H153.158C158.007 68.1 159.086 68.0688 159.055 67.8967C159.039 67.7872 158.946 67.2553 158.852 66.7235C158.773 66.1916 158.648 65.519 158.601 65.2374L158.523 64.7368H152.266C148.84 64.7368 146.04 64.7838 146.071 64.8463Z"
    fill="#0000CD"
  />
<path
    d="M0.00935559 79.1135C-0.00628722 79.1917 -0.00628722 79.7704 0.0406412 80.3962L0.118855 81.5381H79.9754H159.832L159.941 80.5213C160.004 79.9582 160.02 79.3794 159.973 79.223C159.894 78.9727 155.952 78.957 79.9754 78.957C27.5876 78.957 0.056284 79.004 0.00935559 79.1135Z"
    fill="#808080"
  />
<path
    d="M1.16516 93.0278C1.22773 93.3563 1.33723 94.0445 1.41545 94.5451C1.49366 95.0457 1.61881 95.5306 1.68138 95.5932C1.75959 95.6714 11.2078 95.7183 22.7053 95.7027L43.5728 95.6558L41.9616 94.0445L40.3504 92.449H1.05566L1.16516 93.0278Z"
    fill="#228B22"
  />
<path
    d="M2.44787 98.8469C2.35402 98.9877 2.66687 100.474 2.96409 101.365C3.0423 101.584 3.23001 102.21 3.38644 102.773C3.52723 103.336 3.73058 103.884 3.8088 103.978C3.9183 104.134 8.97093 104.181 28.0864 104.181H52.2233L54.7574 106.684H104.877C132.455 106.684 155.106 106.637 155.247 106.59C155.388 106.543 155.497 106.387 155.497 106.277C155.497 106.152 155.685 105.495 155.919 104.807C156.154 104.119 156.295 103.524 156.264 103.477C156.217 103.43 132.533 103.383 103.626 103.368L51.0814 103.321L48.8288 101.006L46.5762 98.7061H24.5512C11.5051 98.7061 2.4948 98.7687 2.44787 98.8469Z"
    fill="#228B22"
  />
<path
    d="M5.99879 109.766C5.87365 109.812 5.85801 109.922 5.95186 110.094C6.03008 110.235 6.296 110.892 6.56193 111.533C7.172 113.035 8.29828 115.444 8.47036 115.6C8.51728 115.647 8.68935 116.007 8.86143 116.414C9.01785 116.836 9.20557 117.165 9.28378 117.165C9.34635 117.165 9.39328 117.274 9.39328 117.399C9.39328 117.603 12.5844 117.634 37.1593 117.634C52.4266 117.634 64.9253 117.571 64.9253 117.509C64.9253 117.446 64.5029 116.977 63.9867 116.461C63.4705 115.944 63.0481 115.444 63.0481 115.334C63.0481 115.162 71.4952 115.131 107.427 115.1L151.805 115.053L152.087 114.505C152.541 113.598 152.994 112.503 152.994 112.331C152.994 112.237 153.057 112.159 153.135 112.159C153.213 112.159 153.323 111.971 153.37 111.752C153.464 111.424 153.933 110.297 154.199 109.781C154.261 109.64 6.31165 109.625 5.99879 109.766Z"
    fill="#228B22"
  />
<path
    d="M68.5231 120.684C68.5231 120.731 69.6494 121.889 71.0259 123.265C72.4025 124.642 73.5288 125.831 73.5288 125.925C73.5288 126.034 64.018 126.081 44.1985 126.081C23.988 126.081 14.8683 126.128 14.8683 126.237C14.8683 126.425 15.4001 127.207 15.932 127.802C16.1197 128.005 16.2761 128.271 16.2761 128.381C16.2761 128.474 16.323 128.584 16.4013 128.615C16.4638 128.631 16.761 128.975 17.0583 129.366C17.3555 129.741 17.7153 130.179 17.8404 130.32C18.8259 131.415 19.0605 131.681 19.3421 132.057C19.9991 132.901 21.5321 134.606 22.5802 135.654L23.6439 136.718H83.9313L81.7882 134.559C77.5334 130.305 76.1881 128.897 76.1881 128.74C76.1881 128.631 86.9503 128.584 109.898 128.584C128.435 128.584 143.609 128.537 143.609 128.459C143.609 128.396 143.765 128.177 143.968 127.958C144.172 127.739 144.594 127.129 144.923 126.613C145.251 126.081 145.627 125.518 145.783 125.361C145.924 125.189 146.456 124.392 146.972 123.578C147.472 122.765 148.051 121.873 148.254 121.607C148.458 121.341 148.614 121.013 148.614 120.872C148.614 120.622 145.736 120.606 108.569 120.606C86.5436 120.606 68.5231 120.637 68.5231 120.684Z"
    fill="#228B22"
  />
<path
    d="M84.7916 137.172C84.7916 137.297 86.1838 138.752 91.7683 144.43C93.3482 146.041 94.6466 147.465 94.6466 147.59C94.6466 147.793 91.1582 147.825 66.1767 147.856L37.7068 147.903L38.9895 148.685C40.9761 149.874 46.1695 152.549 48.031 153.331C48.25 153.425 48.6411 153.597 48.8914 153.706C49.9082 154.144 50.5026 154.379 51.6289 154.786C52.2702 155.02 53.068 155.302 53.3965 155.427C53.7094 155.552 54.1161 155.646 54.2881 155.646C54.4602 155.646 54.601 155.708 54.601 155.787C54.601 155.865 54.8513 155.974 55.1641 156.037C55.477 156.084 55.8524 156.193 55.9932 156.256C56.4781 156.491 57.8547 156.897 58.1676 156.897C58.3553 156.897 58.5273 156.96 58.5743 157.038C58.6212 157.116 58.9341 157.226 59.2469 157.273C59.5754 157.335 60.0603 157.445 60.3106 157.523C60.5766 157.601 61.3431 157.773 62.0313 157.914C62.7196 158.055 63.5174 158.243 63.799 158.336C64.0805 158.415 64.6906 158.524 65.1599 158.571C65.6292 158.618 66.0203 158.728 66.0203 158.79C66.0203 158.868 66.3487 158.931 66.7711 158.931C67.1778 158.931 67.8192 159.009 68.2102 159.103C68.6013 159.197 69.5868 159.338 70.4002 159.416C71.2137 159.51 72.4494 159.635 73.1377 159.713C74.8271 159.901 84.995 159.901 86.747 159.713C90.1571 159.353 91.1582 159.244 91.9717 159.103C92.4566 159.009 93.0667 158.915 93.317 158.868C94.0678 158.743 96.0388 158.352 97.2277 158.086C97.8377 157.945 98.6042 157.789 98.9484 157.742C99.2925 157.679 99.6523 157.586 99.7305 157.523C99.8244 157.46 100.184 157.351 100.544 157.288C100.919 157.226 101.248 157.116 101.31 157.038C101.357 156.96 101.545 156.897 101.733 156.897C101.92 156.897 102.358 156.788 102.703 156.678L103.313 156.459L100.747 153.847C99.3238 152.408 97.4779 150.531 96.6489 149.702C95.8042 148.857 95.1159 148.059 95.1159 147.918C95.1159 147.699 96.4455 147.668 109.038 147.637C118.408 147.606 123.007 147.543 123.085 147.433C123.148 147.34 123.586 147.027 124.055 146.73C124.524 146.432 124.947 146.135 124.962 146.073C124.994 145.994 125.119 145.947 125.244 145.947C125.369 145.947 125.51 145.838 125.557 145.713C125.619 145.588 125.713 145.478 125.807 145.478C125.932 145.478 128.169 143.883 128.435 143.601C128.482 143.554 128.967 143.179 129.53 142.741C130.093 142.318 130.578 141.927 130.625 141.88C130.672 141.833 131.235 141.333 131.876 140.785C132.518 140.238 133.081 139.737 133.097 139.659C133.128 139.596 133.222 139.534 133.3 139.534C133.378 139.534 133.941 139.033 134.551 138.439C135.177 137.829 135.74 137.344 135.803 137.344C135.881 137.344 135.944 137.266 135.944 137.187C135.944 137.078 127.309 137.031 110.368 137.031C96.3047 137.031 84.7916 137.094 84.7916 137.172Z"
    fill="#228B22"
  />
<path
    d="M124.37 168.151C121.961 168.495 119.802 169.403 117.925 170.811C113.858 173.908 111.809 179.868 112.747 185.968C113.623 191.772 116.752 195.792 121.711 197.482C123.729 198.17 125.168 198.389 127.608 198.373C131.628 198.358 135.977 196.965 138.996 194.728L140.044 193.946V182.058H127.217V187.063L130.627 187.095L134.022 187.142L134.115 190.818L133.239 191.381C129.094 194.025 124.26 193.931 121.429 191.131C120.944 190.661 120.365 189.942 120.131 189.551C118.3 186.375 118.144 180.619 119.802 177.287C120.788 175.284 122.774 173.751 124.996 173.282C126.325 173.016 128.985 173.173 130.064 173.595C131.55 174.174 133.224 175.941 133.552 177.255C133.615 177.49 133.74 177.678 133.849 177.678C133.943 177.678 135.273 177.459 136.806 177.177C139.919 176.614 139.762 176.724 139.262 175.269C138.714 173.642 137.979 172.484 136.759 171.264C134.991 169.512 133.161 168.652 130.22 168.214C128.593 167.964 125.825 167.932 124.37 168.151Z"
    fill="black"
  />
<path
    d="M19.9072 197.873L28.7141 197.826C38.2719 197.763 38.2719 197.763 40.1803 196.84C43.1055 195.417 45.0296 191.506 44.4664 188.158C44.0284 185.562 42.3547 183.544 39.8362 182.558L39.1166 182.261L39.9144 181.761C40.9937 181.057 41.901 180.009 42.4954 178.773C42.9491 177.819 42.9804 177.647 42.9804 175.879C42.9804 174.064 42.9647 173.97 42.4642 172.938C41.7915 171.577 40.4619 170.216 39.1635 169.559C37.302 168.605 36.911 168.574 28.0102 168.495L19.9072 168.417V197.873ZM35.0025 173.626C35.8472 173.861 36.5825 174.44 36.9579 175.175C37.5523 176.333 37.2551 178.35 36.3947 179.117C36.2227 179.273 35.7377 179.555 35.3154 179.743C34.5645 180.087 34.3299 180.102 30.2002 180.149L25.8515 180.212V173.454H30.122C32.703 173.454 34.6271 173.517 35.0025 173.626ZM33.1254 185.171C35.5657 185.327 36.2852 185.53 37.13 186.266C37.9903 186.985 38.3657 187.83 38.3657 189.066C38.3657 190.646 37.74 191.741 36.4104 192.413C35.6126 192.836 33.626 192.992 29.2616 193.008H25.8515V185.03H28.4795C29.9186 185.046 32.0148 185.108 33.1254 185.171Z"
    fill="black"
  />
<path
    d="M49.4721 197.857H55.1035L55.1348 175.253L60.8132 197.857H66.601L72.3889 174.94L72.4358 186.391L72.4671 197.857H77.942V168.449H73.4995C70.0894 168.449 69.0413 168.495 68.9787 168.636C68.9474 168.746 67.7586 173.22 66.3507 178.569C64.9429 183.935 63.754 188.252 63.6915 188.19C63.6445 188.127 62.4557 183.763 61.0635 178.476C59.6556 173.188 58.4824 168.777 58.4355 168.652C58.3729 168.495 57.4813 168.449 53.9147 168.449H49.4721V197.857Z"
    fill="black"
  />
<path
    d="M83.8863 197.857H89.8306V189.019L92.2552 186.594C94.1949 184.654 94.7111 184.217 94.8363 184.404C94.9145 184.529 96.7291 187.611 98.8565 191.24L102.72 197.857H106.521C108.618 197.857 110.323 197.81 110.323 197.732C110.307 197.669 107.71 193.649 104.55 188.784L98.7939 179.946L102.407 176.207C104.394 174.158 106.897 171.561 107.945 170.466L109.885 168.449H101.891L89.9088 181.495L89.8619 174.972L89.8306 168.449H83.8863V197.857Z"
    fill="black"
  />
</svg>
